<svg xmlns="http://www.w3.org/2000/svg" width="621.024" height="31" viewBox="0 0 621.024 31"><defs><style>.a{fill:#f1f1f1;}.b{fill:#ff4747;stroke:#fff;stroke-width:5px;}.c{fill:#fff;}.d{stroke:none;}.e{fill:none;}</style></defs><g transform="translate(-930 -756)"><rect class="a" width="538" height="9.5" rx="4.75" transform="translate(971 767)"/><g class="b" transform="translate(1058 758)"><circle class="d" cx="13.5" cy="13.5" r="13.5"/><circle class="e" cx="13.5" cy="13.5" r="11"/></g><g transform="translate(1223.024 -50)"><path class="c" d="M1366.573,629.726l17.716-12.709a2.509,2.509,0,0,0,0-4.337l-17.716-12.709-.025-.018c-1.112-.785-3-.2-3,.92v27.951c0,1.119,1.886,1.7,3,.92Z" transform="translate(-1063.574 206.645)"/><rect class="c" width="6" height="31" rx="3" transform="translate(322 806)"/></g><g transform="translate(844.024 -50)"><path class="c" d="M1366.573,629.726l17.716-12.709a2.509,2.509,0,0,0,0-4.337l-17.716-12.709-.025-.018c-1.112-.785-3-.2-3,.92v27.951c0,1.119,1.886,1.7,3,.92Z" transform="translate(1477.55 1436.355) rotate(180)"/><rect class="c" width="6" height="31" rx="3" transform="translate(91.976 837) rotate(180)"/></g></g></svg>