<svg xmlns="http://www.w3.org/2000/svg" width="23.516" height="22.685" viewBox="0 0 23.516 22.685"><defs><style>.a{fill:#ff4747;}</style></defs><path class="a" d="M5.59,26.793V22.019A11.647,11.647,0,0,1,17.236,10.373H18.6V4.582a.472.472,0,0,1,.82-.318l9.566,10.49a.473.473,0,0,1,0,.636L19.417,25.88a.472.472,0,0,1-.82-.318V19.769A15.1,15.1,0,0,0,7.521,24.676Zm11.646-15.2a10.431,10.431,0,0,0-10.43,10.43V23.66a16.321,16.321,0,0,1,11.841-5.107h1.164v5.091l7.817-8.572L19.811,6.5v5.091Z" transform="translate(-5.59 -4.109)"/></svg>