<svg xmlns="http://www.w3.org/2000/svg" xmlns:xlink="http://www.w3.org/1999/xlink" width="28" height="28" viewBox="0 0 28 28"><defs><style>.a{fill:#ff4747;}.b{clip-path:url(#a);}</style><clipPath id="a"><circle class="a" cx="14" cy="14" r="14" transform="translate(379 764)"/></clipPath></defs><g class="b" transform="translate(-379 -764)"><g transform="translate(377 761.333)"><path class="a" d="M25.885,11.869a1.325,1.325,0,0,0,.391-.26l.667-.667a1.333,1.333,0,0,0-1.885-1.885l-.667.667a1.308,1.308,0,0,0-.153.231,11.958,11.958,0,0,0-6.919-3.213c0-.025.015-.048.015-.075V5.333h1.333a1.333,1.333,0,0,0,0-2.667H13.333a1.333,1.333,0,1,0,0,2.667h1.333V6.667a.771.771,0,0,0,.016.076,12,12,0,1,0,11.2,5.127ZM16,28a9.333,9.333,0,1,1,9.333-9.333A9.344,9.344,0,0,1,16,28Z"/><path class="a" d="M17.333,17.333V14.667a1.333,1.333,0,0,0-2.667,0v4A1.337,1.337,0,0,0,16,20h4a1.333,1.333,0,1,0,0-2.667Z"/><path class="a" d="M16,10.667a8,8,0,1,0,8,8A8,8,0,0,0,16,10.667Zm0,14.667a6.667,6.667,0,1,1,6.667-6.667A6.674,6.674,0,0,1,16,25.333Z"/></g></g></svg>