<svg xmlns="http://www.w3.org/2000/svg" width="107" height="107" viewBox="0 0 107 107"><defs><style>.a{fill:#ff4747;}.b{fill:#fff;}.c{fill:none;stroke:#fff;stroke-linecap:round;stroke-miterlimit:10;stroke-width:4px;}</style></defs><g transform="translate(-893 -4824)"><circle class="a" cx="53.5" cy="53.5" r="53.5" transform="translate(893 4824)"/><g transform="translate(910 4839.444)"><path class="b" d="M15,26v5.576A24.468,24.468,0,0,0,30.676,26Z" transform="translate(19.666 42.909)"/><path class="c" d="M5,16v5.576c0,6.97,5.576,8.364,5.576,8.364s5.576,16.727,22.3,16.727" transform="translate(1.788 25.03)"/><path class="b" d="M65.333,43.818H56.969c0-17.4-8.364-25.091-8.364-25.091C40.242,38.242,12.364,24.3,12.364,43.818H4V32.666C4,13.151,20.727,2,34.666,2,45.818,2,48.606,7.576,48.606,7.576c11.151,0,16.727,13.939,16.727,25.091Z" transform="translate(0 0)"/><path class="b" d="M19.97,21H17.182a4.182,4.182,0,1,0,0,8.364H19.97a4.182,4.182,0,1,0,0-8.364Z" transform="translate(16.091 33.969)"/><path class="c" d="M16,35.515H29.939A11.152,11.152,0,0,0,41.091,24.364V16" transform="translate(21.454 25.03)"/><path class="b" d="M28.576,28.939H23V15h5.576a5.574,5.574,0,0,1,5.576,5.576v2.788A5.574,5.574,0,0,1,28.576,28.939Z" transform="translate(33.969 23.242)"/></g></g></svg>